<svg width="28" height="26" viewBox="0 0 28 26" fill="none" xmlns="http://www.w3.org/2000/svg">
<path d="M21.8283 10.2808C21.7116 10.2808 21.595 10.2592 21.4783 10.2158C21.035 10.0317 20.8367 9.55498 21.0233 9.14332C21.245 8.67748 21.1167 7.99498 20.7083 7.43165C20.3 6.85748 19.6817 6.46748 19.1217 6.49998C18.6083 6.49998 18.2467 6.14248 18.235 5.69832C18.235 5.24332 18.62 4.88582 19.0983 4.87498C20.3 4.85332 21.4317 5.49248 22.1667 6.52165C22.9133 7.56165 23.0883 8.80748 22.6333 9.78248C22.4933 10.0967 22.1666 10.2808 21.8283 10.2808Z" fill="white"/>
<path d="M25.4567 11.3533C25.3751 11.3533 25.3051 11.3424 25.2234 11.3208C24.7567 11.2016 24.4884 10.7574 24.6167 10.3241C25.0601 8.85078 24.6867 7.09578 23.6251 5.62245C22.5634 4.14911 20.9534 3.16328 19.3084 2.97911C18.8301 2.92495 18.4917 2.52411 18.5501 2.07995C18.6084 1.63578 19.0517 1.31078 19.5184 1.37578C21.6534 1.61411 23.7301 2.87078 25.0717 4.73411C26.4134 6.59745 26.8684 8.85078 26.2967 10.7791C26.1917 11.1149 25.8417 11.3533 25.4567 11.3533Z" fill="white"/>
<path d="M19.9733 12.7617C19.9733 13.0867 19.6817 13.3575 19.3317 13.3575H4.00165C3.65165 13.3575 3.35999 13.0867 3.35999 12.7617C3.35999 12.4367 3.65165 12.1658 4.00165 12.1658H4.86499L5.19165 10.7358C5.49499 9.34917 6.13665 8.08167 8.67999 8.08167H14.665C17.2083 8.08167 17.8383 9.36 18.1533 10.7358L18.48 12.1658H19.3433C19.6817 12.1658 19.9733 12.4367 19.9733 12.7617Z" fill="white"/>
<path d="M20.3348 17.2358C20.2065 15.9358 19.8332 14.5383 17.1032 14.5383H6.22984C3.49984 14.5383 3.12651 15.9358 2.99817 17.2358L2.51984 22.0567C2.46151 22.6525 2.67151 23.2592 3.11484 23.7142C3.56984 24.1692 4.19984 24.4292 4.88817 24.4292H6.48651C7.86317 24.4292 8.13151 23.6925 8.30651 23.2158L8.48151 22.7392C8.67984 22.1975 8.72651 22.0567 9.49651 22.0567H13.8598C14.6298 22.0567 14.6532 22.1325 14.8748 22.7392L15.0498 23.2158C15.2248 23.7033 15.4815 24.4292 16.8698 24.4292H18.4682C19.1448 24.4292 19.7865 24.1692 20.2415 23.7142C20.6848 23.2592 20.8948 22.6633 20.8365 22.0567L20.3348 17.2358ZM9.11151 18.8825H6.55651C6.20651 18.8825 5.91484 18.6117 5.91484 18.2867C5.91484 17.9617 6.20651 17.6908 6.55651 17.6908H9.11151C9.46151 17.6908 9.75317 17.9617 9.75317 18.2867C9.75317 18.6117 9.46151 18.8825 9.11151 18.8825ZM16.7765 18.8825H14.2215C13.8715 18.8825 13.5798 18.6117 13.5798 18.2867C13.5798 17.9617 13.8715 17.6908 14.2215 17.6908H16.7765C17.1265 17.6908 17.4182 17.9617 17.4182 18.2867C17.4182 18.6117 17.1265 18.8825 16.7765 18.8825Z" fill="white"/>
</svg>
